<?xml version="1.0" encoding="UTF-8" standalone="no"?>
<svg
   xmlns:dc="http://purl.org/dc/elements/1.1/"
   xmlns:cc="http://creativecommons.org/ns#"
   xmlns:rdf="http://www.w3.org/1999/02/22-rdf-syntax-ns#"
   xmlns:svg="http://www.w3.org/2000/svg"
   xmlns="http://www.w3.org/2000/svg"
   xmlns:sodipodi="http://sodipodi.sourceforge.net/DTD/sodipodi-0.dtd"
   xmlns:inkscape="http://www.inkscape.org/namespaces/inkscape"
   width="150.667"
   height="150.667"
   viewBox="0 0 113 113"
   version="1.1"
   id="svg4"
   sodipodi:docname="bg_icon_small_invert.svg"
   inkscape:version="1.0.2-2 (e86c870879, 2021-01-15)">
  <metadata
     id="metadata10">
    <rdf:RDF>
      <cc:Work
         rdf:about="">
        <dc:format>image/svg+xml</dc:format>
        <dc:type
           rdf:resource="http://purl.org/dc/dcmitype/StillImage" />
      </cc:Work>
    </rdf:RDF>
  </metadata>
  <defs
     id="defs8" />
  <sodipodi:namedview
     pagecolor="#ffffff"
     bordercolor="#666666"
     borderopacity="1"
     objecttolerance="10"
     gridtolerance="10"
     guidetolerance="10"
     inkscape:pageopacity="0"
     inkscape:pageshadow="2"
     inkscape:window-width="3440"
     inkscape:window-height="1377"
     id="namedview6"
     showgrid="false"
     inkscape:zoom="6.6902504"
     inkscape:cx="69.653597"
     inkscape:cy="75.333504"
     inkscape:window-x="1912"
     inkscape:window-y="-8"
     inkscape:window-maximized="1"
     inkscape:current-layer="svg4" />
  <path
     d="M90.322 92.873a57.4 57.4 0 0 0 5.266-5.828A36.51 36.51 0 0 0 99.42 81.1a82.42 82.42 0 0 0 3.77-8.355c1.028-2.703 1.625-4.898 1.992-7.129s.822-4.492.877-7.246l.094-3.604-.286-4.628c-.113-2.277-.536-3.631-.951-5.197l-1.684-5.27-2.27-5.77c-.949-1.945-2.176-3.891-3.437-5.711l-3.332-4.512-1.18-1.586c-.188-.23-.336-.348-.469-.434s-.258-.141-.539-.152-.719.027-1.676.074l-3.801.191-3.617.281-.297-7.027c-.082-.609-.164-1.219-.359-1.668s-.504-.746-1.031-1.129-1.266-.852-2.359-1.438-2.535-1.273-4.063-1.914l-4.668-1.715A25.12 25.12 0 0 0 64.97 6.02c-2.184-.254-5.105-.367-7.523-.391s-4.344.043-6.273.215-3.871.441-6.379 1.078-5.586 1.637-8.086 2.645-4.422 2.02-6.609 3.492-4.641 3.406-6.895 5.453-4.309 4.219-6.305 6.887a58.07 58.07 0 0 0-5.289 8.57c-1.359 2.746-2.148 5.078-2.504 6.773s-.281 2.762.055 3.711.934 1.777 1.754 2.887l2.945 3.914-6.082 5.344c-.273.477-.547.957-.723 1.652s-.25 1.609-.113 3.09.5 3.523.98 5.645a54.56 54.56 0 0 0 2.082 7.02c.992 2.695 2.371 5.895 3.906 8.543s3.219 4.754 4.953 6.715 3.504 3.777 5.785 5.68 5.055 3.891 8.305 5.727 6.973 3.516 10.016 4.578 5.406 1.512 7.344 1.734 3.441.223 5.238.191 3.883-.098 5.586-.234 3.02-.348 3.844-.687 1.148-.813 1.867-2.184 1.91-3.824 3.062-6.184l7.762 3.676a3.28 3.28 0 0 0 1.32-.062c.593-.144 1.426-.469 2.262-.988s1.688-1.234 3.238-2.523 3.805-3.16 5.828-5.113z"
     fill="#ad2e26"
     id="path2"
     style="stroke:#ad2e26;stroke-opacity:1" />
</svg>
