<?xml version="1.0" encoding="UTF-8" standalone="no"?>
<svg
   xmlns:dc="http://purl.org/dc/elements/1.1/"
   xmlns:cc="http://creativecommons.org/ns#"
   xmlns:rdf="http://www.w3.org/1999/02/22-rdf-syntax-ns#"
   xmlns:svg="http://www.w3.org/2000/svg"
   xmlns="http://www.w3.org/2000/svg"
   xmlns:sodipodi="http://sodipodi.sourceforge.net/DTD/sodipodi-0.dtd"
   xmlns:inkscape="http://www.inkscape.org/namespaces/inkscape"
   width="50"
   height="50"
   viewBox="0 0 13.229166 13.229167"
   version="1.1"
   id="svg3180"
   inkscape:version="1.0.2-2 (e86c870879, 2021-01-15)"
   sodipodi:docname="icon_enthusiasts_small.svg">
  <defs
     id="defs3174">
    <inkscape:path-effect
       effect="bspline"
       id="path-effect1989"
       is_visible="true"
       lpeversion="1"
       weight="33.333333"
       steps="2"
       helper_size="0"
       apply_no_weight="true"
       apply_with_weight="true"
       only_selected="false" />
    <inkscape:path-effect
       effect="bspline"
       id="path-effect3147"
       is_visible="true"
       lpeversion="1"
       weight="33.333333"
       steps="2"
       helper_size="0"
       apply_no_weight="true"
       apply_with_weight="true"
       only_selected="false" />
  </defs>
  <sodipodi:namedview
     id="base"
     pagecolor="#ffffff"
     bordercolor="#666666"
     borderopacity="1.0"
     inkscape:pageopacity="0.0"
     inkscape:pageshadow="2"
     inkscape:zoom="31.678384"
     inkscape:cx="24.472086"
     inkscape:cy="18.452947"
     inkscape:document-units="mm"
     inkscape:current-layer="layer1"
     inkscape:document-rotation="0"
     showgrid="false"
     units="px"
     inkscape:window-width="3440"
     inkscape:window-height="1377"
     inkscape:window-x="1912"
     inkscape:window-y="-8"
     inkscape:window-maximized="1" />
  <metadata
     id="metadata3177">
    <rdf:RDF>
      <cc:Work
         rdf:about="">
        <dc:format>image/svg+xml</dc:format>
        <dc:type
           rdf:resource="http://purl.org/dc/dcmitype/StillImage" />
        <dc:title />
      </cc:Work>
    </rdf:RDF>
  </metadata>
  <g
     inkscape:label="Vrstva 1"
     inkscape:groupmode="layer"
     id="layer1">
    <path
       style="fill:none;stroke:#b02e26;stroke-width:0.476;stroke-linecap:butt;stroke-linejoin:miter;stroke-opacity:1;stroke-miterlimit:4;stroke-dasharray:none"
       d="m 5.1946378,11.155641 c 0.1593008,-0.185593 0.4779206,-0.556801 0.6975676,-0.798103 0.2196471,-0.241302 0.340287,-0.352662 0.4765158,-0.4129856 0.1362287,-0.060324 0.287804,-0.069604 0.4363072,-0.068037 0.1485032,0.00157 0.2938899,0.01394 0.4516704,0.060404 0.1577804,0.046464 0.3279155,0.126892 0.4702011,0.212002 0.1422856,0.08511 0.2567364,0.174815 0.4438976,0.301628 0.1871612,0.126814 0.4470016,0.290761 0.6140509,0.385065 0.1670493,0.0943 0.2412886,0.11905 0.3278052,0.10969 0.086517,-0.0094 0.1855089,-0.05267 0.2488359,-0.122157 0.063327,-0.06949 0.091167,-0.165384 0.0789,-0.2643 C 9.4281228,10.459931 9.3755361,10.35785 9.2873811,10.198536 9.199226,10.039222 9.0754926,9.8226883 8.9223665,9.5520133 8.7692403,9.2813383 8.5867337,8.9565382 8.4784029,8.6982315 8.3700722,8.4399248 8.3360454,8.2481374 8.319005,8.0578729 8.3019645,7.8676084 8.3019645,7.6789148 8.3808218,7.4359964 8.4596791,7.193078 8.6174392,6.8961174 8.9809262,6.3439156 9.3444133,5.7917139 9.9135871,4.9843533 10.215186,4.5281315 10.516784,4.0719098 10.550811,3.9667353 10.515391,3.9156095 10.47997,3.8644837 10.374796,3.867577 10.18752,3.9944079 10.000243,4.1212389 9.7311233,4.3717988 9.2439122,4.798689 8.7567012,5.2255793 8.0514212,5.8287796 7.6260909,6.1829667 7.2007606,6.5371538 7.0553736,6.6423273 6.910101,6.6887576 6.7648284,6.7351878 6.6194415,6.7228144 6.4601443,6.66721 6.3008471,6.6116055 6.12762,6.5126189 5.55841,6.0501795 4.9892,5.5877402 4.0240797,4.7618199 3.5012942,4.3132802 2.9785088,3.8647405 2.8980792,3.7935913 2.8314459,3.7795352 c -0.066633,-0.014056 -0.1192226,0.029253 -0.018612,0.2815381 0.1006108,0.2522852 0.3542646,0.7131925 0.702286,1.2978486 0.3480214,0.5846562 0.7903684,1.2930303 1.031577,1.7972498 0.2412086,0.5042196 0.281422,0.8042725 0.2984123,1.0610076 0.01699,0.256735 0.010804,0.4701767 -0.08821,0.7717123 -0.099014,0.3015357 -0.2908003,0.6912959 -0.5119814,1.1707864 -0.221181,0.47949 -0.4717408,1.048664 -0.6697191,1.540533 -0.1979783,0.491868 -0.343365,0.906375 -0.3277691,1.094975 0.015596,0.188599 0.191915,0.151479 0.5166202,-0.128451 0.3247052,-0.279929 0.7979855,-0.802703 1.0346367,-1.064102 0.2366511,-0.261399 0.2366501,-0.261399 0.3959509,-0.446992 z"
       id="path1987"
       inkscape:path-effect="#path-effect1989"
       inkscape:original-d="m 5.035337,11.341234 c 0.318885,-0.370943 0.637504,-0.742151 0.95586,-1.113623 0.120909,-0.1111 0.241549,-0.22246 0.361927,-0.3340872 0.151844,-0.009 0.303418,-0.0183 0.45473,-0.02784 0.145657,0.01264 0.291044,0.02501 0.436169,0.03712 0.170404,0.08069 0.3405375,0.1611212 0.5104095,0.2412852 0.114723,0.08998 0.229176,0.179682 0.343367,0.269126 0.260115,0.164218 0.519956,0.328164 0.779536,0.49185 0.07451,0.02501 0.148748,0.04976 0.222725,0.07424 0.09925,-0.04304 0.198242,-0.08635 0.296966,-0.129923 0.02811,-0.09563 0.05595,-0.191526 0.08352,-0.287686 -0.05232,-0.101818 -0.104909,-0.203898 -0.157761,-0.306245 -0.123474,-0.216278 -0.247208,-0.4328112 -0.371208,-0.6496142 -0.182249,-0.324548 -0.364756,-0.649348 -0.547531,-0.97442 -0.03376,-0.19153 -0.06779,-0.3833169 -0.102082,-0.5753721 2.64e-4,-0.1884363 2.64e-4,-0.3771299 0,-0.5660917 0.15803,-0.2967074 0.315791,-0.5936676 0.473289,-0.8908984 0.569461,-0.8071284 1.138635,-1.6144888 1.7075555,-2.4221302 0.03429,-0.1049128 0.06832,-0.2100863 0.102082,-0.3155265 -0.104913,0.00336 -0.210087,0.00645 -0.315527,0.00928 C 10.000498,4.1215127 9.7313785,4.3720729 9.4619875,4.6223735 8.7569435,5.2258626 8.0516635,5.8290629 7.346105,6.432011 7.200977,6.537453 7.05559,6.6426265 6.909936,6.7475375 6.764808,6.7354275 6.619421,6.7230555 6.473767,6.7104165 6.300798,6.6116915 6.127571,6.5127047 5.954076,6.4134513 4.989181,5.5877624 4.024061,4.7618417 3.058656,3.93564 2.978496,3.864755 2.898064,3.7936085 2.817371,3.7221956 c -0.05232,0.043573 -0.104911,0.08688 -0.157763,0.1299229 0.253928,0.4611899 0.507582,0.922097 0.760976,1.3827484 0.442629,0.7086666 0.884976,1.4170406 1.327067,2.125164 0.04048,0.3003302 0.08069,0.6003836 0.120643,0.9001787 -0.0059,0.2137132 -0.01211,0.4271542 -0.01856,0.6403332 -0.19153,0.390041 -0.383317,0.779801 -0.575372,1.1693042 -0.250305,0.569462 -0.500866,1.138635 -0.751695,1.707556 -0.145128,0.414788 -0.290515,0.829295 -0.436169,1.243546 0.176592,-0.03686 0.352911,-0.07398 0.528971,-0.111363 0.473563,-0.52253 0.946844,-1.045303 1.419869,-1.568352 z" />
    <rect
       style="fill:none;stroke:#ac2e26;stroke-width:0.3;stroke-linecap:round;stroke-linejoin:round;stroke-miterlimit:4;stroke-dasharray:none;stroke-opacity:1;paint-order:stroke markers fill"
       id="rect2357"
       width="0.77824706"
       height="0.023771159"
       x="4.0967484"
       y="2.613349" />
    <rect
       style="fill:none;stroke:#ac2e26;stroke-width:0.3;stroke-linecap:round;stroke-linejoin:round;stroke-miterlimit:4;stroke-dasharray:none;stroke-opacity:1;paint-order:stroke markers fill"
       id="rect2357-9"
       width="0.77824706"
       height="0.023771159"
       x="8.3848314"
       y="2.5912127" />
    <rect
       style="fill:none;stroke:#ac2e26;stroke-width:0.3;stroke-linecap:round;stroke-linejoin:round;stroke-miterlimit:4;stroke-dasharray:none;stroke-opacity:1;paint-order:stroke markers fill"
       id="rect2357-9-2"
       width="0.77810669"
       height="0.023780782"
       x="0.20278731"
       y="-6.622654"
       transform="rotate(90)" />
    <rect
       style="fill:none;stroke:#ac2e26;stroke-width:0.3;stroke-linecap:round;stroke-linejoin:round;stroke-miterlimit:4;stroke-dasharray:none;stroke-opacity:1;paint-order:stroke markers fill"
       id="rect2357-9-2-7"
       width="0.77810669"
       height="0.023780782"
       x="-2.9229884"
       y="-7.3104057"
       transform="rotate(114.93308)" />
    <rect
       style="fill:none;stroke:#ac2e26;stroke-width:0.3;stroke-linecap:round;stroke-linejoin:round;stroke-miterlimit:4;stroke-dasharray:none;stroke-opacity:1;paint-order:stroke markers fill"
       id="rect2357-9-2-7-1"
       width="0.77810669"
       height="0.023780782"
       x="-5.8867984"
       y="-6.7362719"
       transform="rotate(139.12251)" />
    <rect
       style="fill:none;stroke:#ac2e26;stroke-width:0.3;stroke-linecap:round;stroke-linejoin:round;stroke-miterlimit:4;stroke-dasharray:none;stroke-opacity:1;paint-order:stroke markers fill"
       id="rect2357-9-2-7-1-7"
       width="0.77810669"
       height="0.023780782"
       x="4.2406859"
       y="1.9425346"
       transform="matrix(0.75611064,0.65444381,0.65444381,-0.75611064,0,0)" />
    <rect
       style="fill:none;stroke:#ac2e26;stroke-width:0.3;stroke-linecap:round;stroke-linejoin:round;stroke-miterlimit:4;stroke-dasharray:none;stroke-opacity:1;paint-order:stroke markers fill"
       id="rect2357-9-2-7-0"
       width="0.77810669"
       height="0.023780782"
       x="2.6809745"
       y="4.7163324"
       transform="matrix(0.42155944,0.90680077,0.90680077,-0.42155944,0,0)" />
    <rect
       style="fill:none;stroke:#ac2e26;stroke-width:0.3;stroke-linecap:round;stroke-linejoin:round;stroke-miterlimit:4;stroke-dasharray:none;stroke-opacity:1;paint-order:stroke markers fill"
       id="rect2357-9-2-7-0-9"
       width="0.77810669"
       height="0.023780784"
       x="0.45894098"
       y="6.0413513"
       transform="rotate(-43.342229)" />
    <rect
       style="fill:none;stroke:#ac2e26;stroke-width:0.3;stroke-linecap:round;stroke-linejoin:round;stroke-miterlimit:4;stroke-dasharray:none;stroke-opacity:1;paint-order:stroke markers fill"
       id="rect2357-9-2-7-0-9-7"
       width="0.77810669"
       height="0.023780784"
       x="-9.188386"
       y="-3.1296949"
       transform="matrix(-0.72726708,-0.68635457,-0.68635457,0.72726708,0,0)" />
    <rect
       style="fill:none;stroke:#b02e26;stroke-width:0.3;stroke-linecap:round;stroke-linejoin:round;stroke-miterlimit:4;stroke-dasharray:none;stroke-opacity:1;paint-order:stroke markers fill"
       id="rect3106"
       width="0.32938337"
       height="0.41343153"
       x="6.4675107"
       y="5.5789075" />
    <rect
       style="fill:none;stroke:#b02e26;stroke-width:0.3;stroke-linecap:round;stroke-linejoin:round;stroke-miterlimit:4;stroke-dasharray:none;stroke-opacity:1;paint-order:stroke markers fill"
       id="rect3108"
       width="0.87229818"
       height="0.88957196"
       x="6.1873236"
       y="4.6534491" />
    <path
       style="fill:none;stroke:#b02e26;stroke-width:0.3;stroke-linecap:butt;stroke-linejoin:miter;stroke-miterlimit:4;stroke-dasharray:none;stroke-opacity:1"
       d="m 6.4187894,1.8141978 c -0.050338,0.00895 -0.1512205,0.02689 -0.2438909,0.067446 C 6.082228,1.9221992 5.9979856,1.9853468 5.9019539,2.0674126 5.8059222,2.1494785 5.698195,2.2503891 5.6242874,2.4039674 5.5503798,2.5575457 5.5103788,2.763531 5.5597457,2.9950881 5.6091126,3.2266452 5.7476104,3.4836167 5.8323881,3.6295798 5.9171658,3.775543 5.9481273,3.8105016 5.960962,3.971024 5.9737967,4.1315464 5.9687518,4.4176262 6.1854472,4.555953 6.4021426,4.6942799 6.8402921,4.685123 7.0638564,4.544214 7.2874207,4.4033049 7.2966658,4.1303849 7.3364925,3.9375925 7.3763192,3.7448 7.4467438,3.6323636 7.5243839,3.4942867 7.6020241,3.3562098 7.6868522,3.1925273 7.7202222,3.0131084 7.7535921,2.8336895 7.7354138,2.6384265 7.6832285,2.4846032 7.6310431,2.33078 7.544677,2.218456 7.4441003,2.1224558 7.3435235,2.0264555 7.2286739,1.9468845 7.1091977,1.8980873 6.9897216,1.8492901 6.8656623,1.8314448 6.787959,1.8204426 6.7102556,1.8094405 6.6789617,1.8052926 6.6336096,1.803887 c -0.045352,-0.00141 -0.1048008,-2.51e-5 -0.1346452,6.68e-4 -0.029845,6.931e-4 -0.029837,6.918e-4 -0.080175,0.00964 z"
       id="path3145"
       inkscape:path-effect="#path-effect3147"
       inkscape:original-d="m 6.4691273,1.8052468 c -0.1006232,0.018198 -0.2015055,0.036138 -0.3026797,0.053822 -0.083998,0.063426 -0.1682404,0.1265736 -0.252781,0.1894829 -0.1074887,0.1011998 -0.2152162,0.20211 -0.3232432,0.3027896 -0.039736,0.2062641 -0.079739,0.412249 -0.1200053,0.6179674 0.1387958,0.2572819 0.2772933,0.5142535 0.4155354,0.7709925 0.031237,0.03522 0.062198,0.070179 0.092893,0.1048854 -0.00477,0.2863647 -0.00982,0.5724444 -0.015135,0.858256 0.4384372,-0.00887 0.8765867,-0.01803 1.3144726,-0.027471 0.00951,-0.2726574 0.018764,-0.5455771 0.027736,-0.818776 C 7.3766313,3.7449955 7.4470546,3.6325583 7.5172233,3.5198396 7.6023467,3.356377 7.6871709,3.1926925 7.7717482,3.0287139 7.7538397,2.8336665 7.735656,2.638404 7.7172053,2.4428387 7.6310865,2.3307466 7.5447223,2.2184212 7.4580664,2.105814 7.3434837,2.0265129 7.2286341,1.9469419 7.1135111,1.8670966 6.9896907,1.8495049 6.8656314,1.8316598 6.7412458,1.8135481 c -0.031019,-0.00389 -0.062314,-0.00803 -0.093854,-0.01244 -0.059128,0.00164 -0.1185768,0.00302 -0.1782719,0.00414 z"
       sodipodi:nodetypes="cccccccccccccccccc" />
  </g>
</svg>
